<svg width="21" height="19" viewBox="0 0 21 19" fill="none" xmlns="http://www.w3.org/2000/svg">
<path d="M10.0312 2.78125L10.4609 3.25L10.9297 2.82031C12.2188 1.53125 14.0547 0.945312 15.8125 1.25781C18.5078 1.6875 20.5 4.03125 20.5 6.76562V6.96094C20.5 8.60156 19.7969 10.1641 18.625 11.2578L11.5547 17.8594C11.2812 18.1328 10.8906 18.25 10.5 18.25C10.0703 18.25 9.67969 18.1328 9.40625 17.8594L2.33594 11.2578C1.16406 10.1641 0.5 8.60156 0.5 6.96094V6.76562C0.5 4.03125 2.45312 1.6875 5.14844 1.25781C6.90625 0.945312 8.74219 1.53125 10.0312 2.78125C10.0312 2.82031 9.99219 2.78125 10.0312 2.78125ZM10.4609 5.90625L8.70312 4.10938C7.84375 3.28906 6.63281 2.89844 5.46094 3.09375C3.66406 3.40625 2.375 4.92969 2.375 6.76562V6.96094C2.375 8.09375 2.80469 9.14844 3.625 9.89062L10.5 16.2969L17.3359 9.89062C18.1562 9.14844 18.625 8.09375 18.625 6.96094V6.76562C18.625 4.92969 17.2969 3.40625 15.5 3.09375C14.3281 2.89844 13.1172 3.28906 12.2578 4.10938L10.4609 5.90625Z" fill="white"/>
</svg>
