<svg width="60" height="60" viewBox="0 0 60 60" fill="none" xmlns="http://www.w3.org/2000/svg">
<path d="M30 19.2188C24 19.2188 19.2188 24.0938 19.2188 30C19.2188 36 24 40.7812 30 40.7812C35.9062 40.7812 40.7812 36 40.7812 30C40.7812 24.0938 35.9062 19.2188 30 19.2188ZM30 37.0312C26.1562 37.0312 22.9688 33.9375 22.9688 30C22.9688 26.1562 26.0625 23.0625 30 23.0625C33.8438 23.0625 36.9375 26.1562 36.9375 30C36.9375 33.9375 33.8438 37.0312 30 37.0312ZM43.6875 18.8438C43.6875 20.25 42.5625 21.375 41.1562 21.375C39.75 21.375 38.625 20.25 38.625 18.8438C38.625 17.4375 39.75 16.3125 41.1562 16.3125C42.5625 16.3125 43.6875 17.4375 43.6875 18.8438ZM50.8125 21.375C50.625 18 49.875 15 47.4375 12.5625C45 10.125 42 9.375 38.625 9.1875C35.1562 9 24.75 9 21.2812 9.1875C17.9062 9.375 15 10.125 12.4688 12.5625C10.0312 15 9.28125 18 9.09375 21.375C8.90625 24.8438 8.90625 35.25 9.09375 38.7188C9.28125 42.0938 10.0312 45 12.4688 47.5312C15 49.9688 17.9062 50.7188 21.2812 50.9062C24.75 51.0938 35.1562 51.0938 38.625 50.9062C42 50.7188 45 49.9688 47.4375 47.5312C49.875 45 50.625 42.0938 50.8125 38.7188C51 35.25 51 24.8438 50.8125 21.375ZM46.3125 42.375C45.6562 44.25 44.1562 45.6562 42.375 46.4062C39.5625 47.5312 33 47.25 30 47.25C26.9062 47.25 20.3438 47.5312 17.625 46.4062C15.75 45.6562 14.3438 44.25 13.5938 42.375C12.4688 39.6562 12.75 33.0938 12.75 30C12.75 27 12.4688 20.4375 13.5938 17.625C14.3438 15.8438 15.75 14.4375 17.625 13.6875C20.3438 12.5625 26.9062 12.8438 30 12.8438C33 12.8438 39.5625 12.5625 42.375 13.6875C44.1562 14.3438 45.5625 15.8438 46.3125 17.625C47.4375 20.4375 47.1562 27 47.1562 30C47.1562 33.0938 47.4375 39.6562 46.3125 42.375Z" fill="white"/>
</svg>
