<svg width="40" height="40" viewBox="0 0 40 40" fill="none" xmlns="http://www.w3.org/2000/svg">
<g id="shop">
<path id="Vector" d="M36.6654 13.0333C36.6734 12.9279 36.6734 12.822 36.6654 12.7166L33.332 4.38331C33.2018 4.05391 32.9701 3.77454 32.6704 3.58574C32.3707 3.39694 32.0187 3.30852 31.6654 3.33331H8.33203C7.99823 3.33299 7.67203 3.4329 7.39567 3.62011C7.11931 3.80732 6.90554 4.0732 6.78203 4.38331L3.4487 12.7166C3.44066 12.822 3.44066 12.9279 3.4487 13.0333C3.39332 13.1261 3.35388 13.2275 3.33203 13.3333C3.35058 14.4854 3.66741 15.613 4.25161 16.6061C4.8358 17.5992 5.66743 18.424 6.66536 19V35C6.66536 35.442 6.84096 35.8659 7.15352 36.1785C7.46608 36.4911 7.89 36.6666 8.33203 36.6666H31.6654C32.1074 36.6666 32.5313 36.4911 32.8439 36.1785C33.1564 35.8659 33.332 35.442 33.332 35V19.0666C34.3396 18.4849 35.1774 17.6497 35.7622 16.6439C36.347 15.6381 36.6583 14.4967 36.6654 13.3333C36.681 13.2339 36.681 13.1327 36.6654 13.0333ZM21.6654 33.3333H18.332V26.6666H21.6654V33.3333ZM29.9987 33.3333H24.9987V25C24.9987 24.558 24.8231 24.134 24.5105 23.8215C24.198 23.5089 23.7741 23.3333 23.332 23.3333H16.6654C16.2233 23.3333 15.7994 23.5089 15.4869 23.8215C15.1743 24.134 14.9987 24.558 14.9987 25V33.3333H9.9987V20C10.9478 19.9946 11.8848 19.7867 12.7471 19.39C13.6094 18.9934 14.377 18.4172 14.9987 17.7C15.6243 18.4094 16.3937 18.9775 17.2558 19.3666C18.1179 19.7558 19.0529 19.9571 19.9987 19.9571C20.9445 19.9571 21.8795 19.7558 22.7416 19.3666C23.6037 18.9775 24.3731 18.4094 24.9987 17.7C25.6204 18.4172 26.388 18.9934 27.2503 19.39C28.1126 19.7867 29.0496 19.9946 29.9987 20V33.3333ZM29.9987 16.6666C29.1146 16.6666 28.2668 16.3155 27.6417 15.6903C27.0166 15.0652 26.6654 14.2174 26.6654 13.3333C26.6654 12.8913 26.4898 12.4674 26.1772 12.1548C25.8646 11.8422 25.4407 11.6666 24.9987 11.6666C24.5567 11.6666 24.1327 11.8422 23.8202 12.1548C23.5076 12.4674 23.332 12.8913 23.332 13.3333C23.332 14.2174 22.9808 15.0652 22.3557 15.6903C21.7306 16.3155 20.8828 16.6666 19.9987 16.6666C19.1146 16.6666 18.2668 16.3155 17.6417 15.6903C17.0166 15.0652 16.6654 14.2174 16.6654 13.3333C16.6654 12.8913 16.4898 12.4674 16.1772 12.1548C15.8646 11.8422 15.4407 11.6666 14.9987 11.6666C14.5567 11.6666 14.1327 11.8422 13.8202 12.1548C13.5076 12.4674 13.332 12.8913 13.332 13.3333C13.3484 13.7711 13.2785 14.2077 13.1261 14.6184C12.9738 15.0291 12.742 15.4058 12.4441 15.7269C12.1462 16.0481 11.7879 16.3074 11.3898 16.4901C10.9917 16.6728 10.5614 16.7752 10.1237 16.7916C9.23964 16.8248 8.37863 16.5054 7.73006 15.9037C7.40893 15.6058 7.14962 15.2475 6.96693 14.8494C6.78425 14.4513 6.68178 14.0211 6.66536 13.5833L9.46536 6.66665H30.532L33.332 13.5833C33.2689 14.4233 32.89 15.2083 32.2716 15.7803C31.6532 16.3523 30.8411 16.669 29.9987 16.6666Z" fill="#FFBC57"/>
</g>
</svg>
