<svg width="100" height="100" viewBox="0 0 100 100" fill="none" xmlns="http://www.w3.org/2000/svg">
<g clip-path="url(#clip0_195_5298)">
<circle cx="50" cy="50" r="50" fill="#FFBC57"/>
<path d="M76.1793 33.5437L70.4571 27.8214C69.4032 26.7675 67.6518 26.7221 66.5444 27.7178L44.7348 47.3347C43.6274 48.3303 41.8189 48.3454 40.6952 47.3673L34.768 42.2051C33.6443 41.2269 31.8801 41.2875 30.8262 42.3413L23.7904 49.3772C22.7365 50.431 22.7365 52.1381 23.7904 53.192L41.4218 70.8234C41.4218 70.8234 41.9936 71.3952 42.6981 72.0997C43.4026 72.8042 44.7825 72.4782 45.7782 71.3708L76.2807 37.4575C77.2786 36.3489 77.232 34.5975 76.1793 33.5437Z" fill="white"/>
</g>
<defs>
<clipPath id="clip0_195_5298">
<rect width="100" height="100" fill="white"/>
</clipPath>
</defs>
</svg>
