<svg width="19" height="18" viewBox="0 0 19 18" fill="none" xmlns="http://www.w3.org/2000/svg">
<path d="M4.65625 18H1.02344V6.32031H4.65625V18ZM2.82031 4.75781C1.6875 4.75781 0.75 3.78125 0.75 2.60938C0.75 1.00781 2.46875 -0.0078125 3.875 0.8125C4.53906 1.16406 4.92969 1.86719 4.92969 2.60938C4.92969 3.78125 3.99219 4.75781 2.82031 4.75781ZM18.2109 18H14.6172V12.3359C14.6172 10.9688 14.5781 9.25 12.7031 9.25C10.8281 9.25 10.5547 10.6953 10.5547 12.2188V18H6.92188V6.32031H10.3984V7.92188H10.4375C10.9453 7.02344 12.1172 6.04688 13.875 6.04688C17.5469 6.04688 18.25 8.46875 18.25 11.5938V18H18.2109Z" fill="#1E2832"/>
</svg>
