<svg width="20" height="20" viewBox="0 0 20 20" fill="none" xmlns="http://www.w3.org/2000/svg">
<g id="facebook">
<path id="Vector" d="M16 3.99688V17C16 17.55 15.5531 17.9969 15.0031 17.9969H10.5469L10.5156 12.3938H12.7312V9.97188H10.5L10.4906 8.55C10.4906 8.15 10.8125 7.82812 11.2125 7.82812H12.7281V5.21875H9.69687C8.69375 5.21875 7.88125 6.03125 7.88125 7.03125L7.89687 9.97188H5.75313V12.3938H7.90938L7.9375 18H2C1.44687 18 1 17.5531 1 17.0031V3.99688C1 3.44688 1.44688 3 1.99688 3H15C15.5531 3 16 3.44688 16 3.99688Z" fill="white"/>
</g>
</svg>
