<svg width="20" height="20" viewBox="0 0 20 20" fill="none" xmlns="http://www.w3.org/2000/svg">
<g id="linkedin">
<path id="Vector" d="M15.006 3H1.99708C1.44697 3 1 3.44697 1 3.99708V17.0029C1 17.553 1.44697 18 1.99708 18H15.0029C15.553 18 16 17.553 16 17.0029V3.99708C16.0031 3.44697 15.5561 3 15.006 3ZM5.86976 15.8339H3.52552V9.20442H5.86663V15.8339H5.86976ZM4.69764 7.42592C4.05063 7.42592 3.52552 6.90081 3.52552 6.2538C3.52552 5.60679 4.05063 5.08168 4.69764 5.08168C5.34465 5.08168 5.86976 5.60679 5.86976 6.2538C5.86976 6.90081 5.34465 7.42592 4.69764 7.42592ZM13.9808 15.9183H11.6397V13.1677C11.6397 12.6926 11.2553 12.3113 10.7833 12.3113C10.3113 12.3113 9.92685 12.6958 9.92685 13.1677V15.8339H7.58574V9.20442H9.92685V10.5203C10.1738 10.4047 10.427 10.3078 10.6895 10.239C11.174 10.1077 11.6772 10.0765 12.1711 10.1515C12.5024 10.2015 12.8525 10.2859 13.1431 10.4547C13.662 10.7579 13.9808 11.3642 13.9808 11.9612C13.9808 11.9581 13.9808 15.9183 13.9808 15.9183Z" fill="white"/>
</g>
</svg>
