<svg width="20" height="20" viewBox="0 0 20 20" fill="none" xmlns="http://www.w3.org/2000/svg">
<g id="youtube">
<path id="Vector" d="M17.3398 3.44531C15.0742 3.29687 11.5352 3.16406 10 3.16406C8.46484 3.16406 4.92578 3.29687 2.66016 3.44531C1.51562 3.52344 0.625 4.47266 0.625 5.62109V14.3789C0.625 15.5273 1.51562 16.4766 2.66016 16.5547C4.92578 16.7031 8.46484 16.8359 10 16.8359C11.5352 16.8359 15.0742 16.7031 17.3398 16.5547C18.4844 16.4805 19.375 15.5273 19.375 14.3789V5.62109C19.375 4.47266 18.4844 3.52344 17.3398 3.44531ZM8.28516 12.9375V7.0625L13.3711 10L8.28516 12.9375Z" fill="white"/>
</g>
</svg>
