<svg width="24" height="24" viewBox="0 0 24 24" fill="none" xmlns="http://www.w3.org/2000/svg">
<path d="M13.0542 15.3708L18.7042 9.71079C18.7979 9.61783 18.8723 9.50723 18.9231 9.38537C18.9739 9.26351 19 9.1328 19 9.00079C19 8.86878 18.9739 8.73807 18.9231 8.61622C18.8723 8.49436 18.7979 8.38376 18.7042 8.29079C18.5168 8.10454 18.2634 8 17.9992 8C17.735 8 17.4816 8.10454 17.2942 8.29079L12.2942 13.2408L7.3442 8.29079C7.15684 8.10454 6.90339 8 6.6392 8C6.37502 8 6.12156 8.10454 5.9342 8.29079C5.83971 8.38341 5.76454 8.49385 5.71305 8.61573C5.66155 8.7376 5.63475 8.86848 5.6342 9.00079C5.63475 9.1331 5.66155 9.26398 5.71305 9.38586C5.76454 9.50773 5.83971 9.61818 5.9342 9.71079L11.5842 15.3708C11.6778 15.4723 11.7915 15.5533 11.918 15.6087C12.0445 15.6641 12.1811 15.6927 12.3192 15.6927C12.4573 15.6927 12.5939 15.6641 12.7204 15.6087C12.8469 15.5533 12.9606 15.4723 13.0542 15.3708Z" fill="#2B2929"/>
</svg>
